<svg width="15" height="15" viewBox="0 0 15 15" fill="none" xmlns="http://www.w3.org/2000/svg">
<rect width="15" height="15" rx="7.5" fill="#1D3054"/>
<path d="M9.81283 4.77634C9.78188 4.66092 9.70636 4.56252 9.60287 4.50277C9.49938 4.44302 9.3764 4.42682 9.26097 4.45773L5.7785 5.39086C5.72044 5.40534 5.66584 5.43124 5.6179 5.46704C5.56995 5.50285 5.52962 5.54784 5.49925 5.59941C5.46888 5.65097 5.44909 5.70806 5.44102 5.76735C5.43295 5.82665 5.43677 5.88695 5.45226 5.94475C5.46775 6.00255 5.49459 6.05669 5.53122 6.10401C5.56786 6.15132 5.61355 6.19087 5.66563 6.22034C5.71771 6.2498 5.77514 6.26861 5.83456 6.27564C5.89399 6.28268 5.95422 6.27781 6.01174 6.26132L8.44338 5.60977L5.45938 10.7782C5.39962 10.8817 5.38342 11.0047 5.41436 11.1202C5.44529 11.2356 5.52082 11.3341 5.62433 11.3938C5.72783 11.4536 5.85084 11.4698 5.96629 11.4388C6.08174 11.4079 6.18017 11.3324 6.23993 11.2289L9.22393 6.06042L9.87549 8.49206C9.90805 8.60564 9.98392 8.7019 10.0868 8.76009C10.1896 8.81828 10.3112 8.83375 10.4253 8.80317C10.5395 8.77258 10.637 8.6984 10.697 8.59658C10.757 8.49476 10.7745 8.37347 10.746 8.25882L9.81283 4.77634Z" fill="white"/>
</svg>
