<svg width="42" height="42" viewBox="0 0 42 42" fill="none" xmlns="http://www.w3.org/2000/svg">
<rect x="0.5" y="0.5" width="41" height="41" rx="20.5" stroke="#1D3054" stroke-opacity="0.2"/>
<path d="M31.2901 23.0655H31.2988C31.2988 23.0655 28.0001 27.9042 25.2263 31.5005C22.8288 34.6067 22.1288 37.2667 21.9276 38.553C21.8488 39.0255 21.4638 39.3755 21.0001 39.3755C20.5363 39.3755 20.1513 39.0255 20.0726 38.553C19.8713 37.2667 19.1713 34.6067 16.7738 31.5005C16.4063 31.0192 16.0301 30.5205 15.6538 30.013L24.7101 19.2505L31.9988 10.6055C32.8038 12.2942 33.2501 14.1842 33.2501 16.188C33.2501 18.7255 32.5238 21.0792 31.2901 23.0655Z" fill="#48B564"/>
<path d="M24.7098 19.25L15.6535 30.0125C13.186 26.705 10.701 23.065 10.701 23.065H10.7098C10.4473 22.645 10.211 22.2162 10.0098 21.77L17.2898 13.125C16.5985 13.9563 16.1873 15.0238 16.1873 16.1875C16.1873 18.8475 18.3398 21 20.9998 21C22.496 21 23.8348 20.3175 24.7098 19.25Z" fill="#FCC60E"/>
<path d="M24.8501 4.1475L17.3513 13.055L11.6113 8.05C13.8513 5.2675 17.2288 3.5 21.0001 3.5C22.3476 3.5 23.6426 3.7275 24.8501 4.1475Z" fill="#2C85EB"/>
<path d="M17.3512 13.0548L17.29 13.1248L10.01 21.7698C9.205 20.0811 8.75 18.1911 8.75 16.1873C8.75 13.0898 9.82625 10.2461 11.6113 8.0498L17.3512 13.0548Z" fill="#ED5748"/>
<path d="M24.71 19.25C25.4013 18.4187 25.8125 17.3512 25.8125 16.1875C25.8125 13.5275 23.66 11.375 21 11.375C19.5038 11.375 18.165 12.0575 17.29 13.125L24.85 4.14746C27.9913 5.21496 30.5638 7.56871 31.9988 10.605L24.71 19.25Z" fill="#5695F6"/>
</svg>
