<svg width="24" height="24" viewBox="0 0 24 24" fill="none" xmlns="http://www.w3.org/2000/svg">
<path d="M4.51489 20.154L10.7769 13.892C11.2769 14.318 11.8519 14.6477 12.5019 14.881C13.1519 15.1143 13.8052 15.231 14.4619 15.231C16.0632 15.231 17.4186 14.6767 18.5279 13.568C19.6372 12.4593 20.1919 11.1043 20.1919 9.503C20.1919 7.90167 19.6379 6.546 18.5299 5.436C17.4219 4.326 16.0672 3.77033 14.4659 3.769C12.8646 3.76767 11.5086 4.32233 10.3979 5.433C9.28723 6.54367 8.7319 7.89933 8.7319 9.5C8.7319 10.1947 8.85489 10.867 9.10089 11.517C9.3469 12.167 9.67023 12.723 10.0709 13.185L3.8089 19.446L4.51489 20.154ZM14.4609 14.23C13.1342 14.23 12.0142 13.7733 11.1009 12.86C10.1876 11.9467 9.73089 10.8263 9.73089 9.499C9.73089 8.17167 10.1876 7.05167 11.1009 6.139C12.0142 5.22633 13.1342 4.76967 14.4609 4.769C15.7876 4.76833 16.9079 5.225 17.8219 6.139C18.7359 7.053 19.1926 8.173 19.1919 9.499C19.1912 10.825 18.7346 11.945 17.8219 12.859C16.9092 13.773 15.7892 14.2297 14.4619 14.229" fill="#173358"/>
</svg>
