<svg width="80" height="80" viewBox="0 0 80 80" fill="none" xmlns="http://www.w3.org/2000/svg">
<rect x="1.5" y="1.5" width="77" height="77" rx="38.5" stroke="#ED6942" stroke-width="3"/>
<path d="M55.4528 41.7861C55.8032 41.4356 56 40.9603 56 40.4647C56 39.9691 55.8032 39.4938 55.4528 39.1433L44.88 28.5706C44.7076 28.3921 44.5014 28.2497 44.2734 28.1517C44.0453 28.0538 43.8001 28.0022 43.5519 28.0001C43.3038 27.9979 43.0577 28.0452 42.828 28.1392C42.5983 28.2331 42.3896 28.3719 42.2141 28.5474C42.0387 28.7229 41.8999 28.9316 41.8059 29.1613C41.7119 29.3909 41.6646 29.637 41.6668 29.8852C41.669 30.1334 41.7205 30.3786 41.8185 30.6066C41.9164 30.8347 42.0588 31.0409 42.2373 31.2133L49.6197 38.5957L24.869 38.5957C24.3733 38.5957 23.8979 38.7926 23.5474 39.1431C23.1969 39.4936 23 39.969 23 40.4647C23 40.9604 23.1969 41.4358 23.5474 41.7863C23.8979 42.1368 24.3733 42.3337 24.869 42.3337L49.6197 42.3337L42.2373 49.7161C41.8969 50.0686 41.7085 50.5407 41.7127 51.0307C41.717 51.5208 41.9135 51.9895 42.2601 52.3361C42.6066 52.6826 43.0754 52.8791 43.5654 52.8834C44.0554 52.8877 44.5275 52.6993 44.88 52.3588L55.4528 41.7861Z" fill="#ED6942"/>
</svg>
