<svg width="80" height="80" viewBox="0 0 80 80" fill="none" xmlns="http://www.w3.org/2000/svg">
<rect x="1.5" y="1.5" width="77" height="77" rx="38.5" fill="white" stroke="#ED6942" stroke-width="3"/>
<path d="M55.4528 39.8506C55.8032 39.4985 56 39.021 56 38.5231C56 38.0252 55.8032 37.5476 55.4528 37.1955L44.88 26.5732C44.7076 26.3939 44.5014 26.2509 44.2734 26.1524C44.0453 26.054 43.8001 26.0022 43.5519 26.0001C43.3038 25.9979 43.0577 26.0454 42.828 26.1398C42.5983 26.2342 42.3896 26.3737 42.2141 26.55C42.0387 26.7263 41.8999 26.9359 41.8059 27.1667C41.7119 27.3975 41.6646 27.6447 41.6668 27.894C41.669 28.1434 41.7205 28.3898 41.8185 28.6188C41.9164 28.8479 42.0588 29.0551 42.2373 29.2283L49.6197 36.6454L24.869 36.6453C24.3733 36.6453 23.8979 36.8432 23.5474 37.1953C23.1969 37.5475 23 38.0251 23 38.5231C23 39.0211 23.1969 39.4987 23.5474 39.8508C23.8979 40.203 24.3733 40.4008 24.869 40.4008L49.6197 40.4008L42.2373 47.8178C41.8969 48.1719 41.7085 48.6463 41.7127 49.1386C41.717 49.6309 41.9135 50.1019 42.2601 50.45C42.6066 50.7982 43.0754 50.9957 43.5654 50.9999C44.0554 51.0042 44.5275 50.8149 44.88 50.4729L55.4528 39.8506Z" fill="#ED6942"/>
</svg>
