<?xml version="1.0" encoding="UTF-8"?>
<svg id="Layer_1" data-name="Layer 1" xmlns="http://www.w3.org/2000/svg" viewBox="0 0 95.5 116.69">
  <defs>
    <style>
      .cls-1 {
        fill: #ed6942;
      }

      .cls-2 {
        fill: #1d3055;
      }
    </style>
  </defs>
  <path class="cls-1" d="M61.76,15.01s1.21,1.26,1.21,2.86v3.59l.53,1.76s.71-.78,1.19,0,.93,2.53.93,2.53l7.7.44s2.6-.96,2.88-1.92.34-4.06,0-5.15-1.85-3.14-1.85-3.14l-12.59-.96Z"/>
  <path class="cls-2" d="M50.96,22.4c-.51,0-1.05-.02-1.64-.05-.67.02-4.86.09-6.22-1.96-.47-.71-1.07-1.33-1.84-2.04-1.95-1.82-5.36-6.43-4.32-10.88.77-3.25,3.66-5.65,8.61-7.12,1.64-.49,3.37-.45,4.99.09,2.39.81,3.78,1.93,4.12,3.34.27,1.09-.12,2.25-1.14,3.46.55,1.41,1.18,2.92,1.45,3.44.07.02.16.04.26.06,1.21.29,3.04.73,3.22,2.08.15,1.12-.97,1.99-2.1,2.65l-.43,4.88c-.01.19-.09.58-.49.97-.75.72-2.22,1.08-4.48,1.08ZM49.33,20.72s.03,0,.05,0c3.92.24,4.79-.43,4.93-.57l.46-5.25c.02-.27.18-.51.42-.64,1.24-.67,1.55-1.09,1.62-1.22-.19-.21-.85-.45-1.96-.72-.5-.12-.73-.17-.93-.34-.17-.14-.47-.39-2.1-4.62-.11-.29-.05-.63.17-.86.88-.91,1.25-1.7,1.09-2.33-.2-.81-1.29-1.59-3.06-2.19-1.3-.44-2.69-.47-4.01-.08-4.35,1.29-6.87,3.28-7.49,5.93-.88,3.72,2.13,7.72,3.84,9.32.85.79,1.53,1.49,2.09,2.33.67,1.02,3.33,1.3,4.84,1.23.01,0,.02,0,.03,0ZM54.3,20.32s0,0,0,0c0,0,0,0,0,0ZM54.3,20.31h0s0,0,0,0ZM54.3,20.31h0s0,0,0,0ZM54.3,20.31h0ZM56.85,13.08h0,0Z"/>
  <path class="cls-2" d="M43.94,20.96c-.39,0-.74-.29-.8-.69-.27-1.72-.51-3.41-.48-5.12.02-1.2.37-2.23.72-3.23.17-.51.34-.99.46-1.49.03-.12.06-.24.08-.35.17-.75.36-1.54,1.05-2.12.97-.82,2.57-.68,3.85-.57.37.03.83.07.98.05.98-.16,1.78-.51,2.2-.94.31-.33.82-.34,1.15-.03.33.31.34.82.03,1.15-.89.94-2.33,1.3-3.11,1.42-.36.06-.81.02-1.39-.03-.82-.07-2.2-.19-2.65.19-.26.22-.36.6-.51,1.24-.03.12-.06.25-.09.38-.14.57-.33,1.11-.5,1.63-.31.92-.61,1.79-.63,2.73-.03,1.58.2,3.19.46,4.84.07.44-.23.86-.68.93-.04,0-.08,0-.13,0Z"/>
  <path class="cls-2" d="M58.52,22.78c-.14,0-.29-.04-.42-.12-.8-.49-3.2-1.79-3.23-1.8-.4-.21-.54-.71-.33-1.1.21-.39.71-.54,1.1-.33.1.05,2.47,1.34,3.3,1.85.38.23.5.73.27,1.12-.15.25-.42.39-.7.39Z"/>
  <path class="cls-2" d="M58.46,23.97s-.01,0-.02,0c-.45-.01-.8-.38-.79-.83.05-1.76.34-7.61,2.26-8.95.47-.33,1.03-.41,1.57-.22,2.98,1.01,2.49,7.4,2.36,8.67-.04.45-.44.77-.89.73-.45-.05-.77-.44-.73-.89.26-2.55.03-6.53-1.27-6.96-.06-.02-.07-.02-.12.01-.86.6-1.48,4.44-1.56,7.65-.01.44-.37.79-.81.79Z"/>
  <path class="cls-2" d="M72.69,27.15s-.05,0-.08,0l-7.13-.68c-.45-.04-.78-.44-.73-.89.04-.45.44-.77.89-.73l7.07.67c.45-.03,3.01-.38,3.01-4.18,0-4.47-2.12-4.55-2.21-4.55-.02,0-.07,0-.09,0l-12.27-1.24c-.45-.05-.77-.44-.73-.89.05-.45.45-.78.89-.73l12.24,1.23c.28,0,1.25.1,2.16.98,1.09,1.06,1.64,2.81,1.64,5.2,0,5.61-4.58,5.81-4.63,5.81,0,0-.02,0-.02,0Z"/>
  <path class="cls-2" d="M67.92,41.77c-.06,0-.13,0-.19-.02-.44-.1-.71-.54-.6-.98.74-3.09,2.18-9.14,2.32-9.94.12-.73.1-1.86-.1-2.7-.06.57-.1,1.29-.09,1.98,0,.42-.31.77-.72.82-.41.05-.8-.23-.89-.63-.34-1.56-.62-2.49-.83-3.04-.21.91-.42,2.4-.5,3.86-.03.45-.41.79-.86.76-.45-.03-.79-.41-.76-.86.35-5.94,1.44-6.03,1.97-6.07.6-.04,1.06.31,1.5,1.28.21-.38.42-.48.55-.54.39-.19.84-.12,1.21.19,1.46,1.21,1.27,4.42,1.14,5.22-.18,1.06-2.25,9.69-2.34,10.06-.09.37-.42.62-.79.62Z"/>
  <path class="cls-2" d="M34.1,61.87c-4.11,0-8.05-1.14-12.09-3.47-6.84-3.94-6.99-5.65-6.45-10.46.57-5.04,2.95-12.45,6.81-16.82,3.93-4.45,10.97-9.94,11.27-10.18.37-.32,3.94-3.32,6.53-3.32.03,0,.06,0,.09,0l2.35.06c.45.01.8.39.79.83s-.39.82-.84.79l-2.35-.06s-.03,0-.05,0c-1.68,0-4.53,2.12-5.49,2.95-.1.08-7.25,5.66-11.08,9.99-3.63,4.11-5.87,11.14-6.41,15.93-.47,4.15-.6,5.27,5.64,8.86,6.95,4,12.44,3.49,15.96,2.75,4.03-.84,6.19-2.52,9.19-4.85.35-.27.7-.55,1.07-.83,3.46-2.66,8.09-7.18,10.24-10.68,2.26-3.68,5.41-10.07,5.43-12.46,0-.31,0-.66.01-1.03.02-1.41.06-4.36-.17-5.74-.29.63-.63,1.68-.89,2.77-.04.22-.08.38-.11.49-.1.43-.54.7-.97.6-.43-.1-.71-.53-.62-.96.05-.23.1-.45.15-.66.35-1.74.31-2.95.18-3.5-.21.4-.45,1.14-.65,1.98-.06.49-.15.97-.27,1.4-.11.42-.53.67-.95.59-.42-.09-.7-.49-.64-.91.07-.49.16-1,.27-1.5.11-1.18-.03-2.16-.21-2.56-.21.3-.49,1.16-.75,1.93-.1.3-.21.63-.33.99-.77,2.26-1.5,4.27-2.56,5.96-.91,1.44-3.1,4.44-5.04,7.08l-.85,1.17c-1.92,2.64-3.91,5.37-7.28,7.89-3.71,2.77-6.84,2.46-8.4,1.36-2.17-1.54-1.27-3.96-.25-5.9,1.39-2.63,7.57-12.69,7.83-13.12.23-.38.74-.5,1.12-.27.38.24.5.74.27,1.12-.06.1-6.41,10.44-7.78,13.03-1.54,2.9-.73,3.47-.25,3.81.9.63,3.27,1.07,6.48-1.33,3.17-2.37,5.09-5,6.94-7.54l.85-1.17c1.82-2.49,4.09-5.6,4.97-6.99.89-1.4,1.5-2.99,2.4-5.61.12-.35.23-.67.32-.97.64-1.94,1.06-3.22,2.47-3.14.41.02.79.24,1.06.62.13.18.24.39.32.63.26-.24.56-.38.91-.38.44,0,.84.2,1.13.56.17.21.29.48.38.78.42-.38.76-.37.94-.36,1.54.08,1.66,2.47,1.58,7.9,0,.37-.01.71-.01,1.02-.03,3.01-3.49,9.75-5.67,13.3-2.36,3.84-7.17,8.46-10.63,11.12-.37.28-.72.56-1.07.83-3.05,2.37-5.45,4.24-9.85,5.16-1.71.36-3.38.54-5.01.54Z"/>
  <path class="cls-2" d="M19.36,56.59c-.08,0-.16-.01-.25-.04-.43-.14-.67-.59-.53-1.02,2.12-6.68,19.22-36.12,19.94-37.37.23-.39.72-.52,1.11-.29.39.23.52.72.29,1.11-.18.3-17.73,30.54-19.8,37.05-.11.35-.43.57-.78.57Z"/>
  <path class="cls-2" d="M50.53,54.73s-.05,0-.07,0c-20.34-1.82-33.32-11.41-33.45-11.51-.36-.27-.43-.78-.16-1.14.27-.36.78-.43,1.14-.16.13.09,12.76,9.41,32.62,11.19.45.04.78.44.74.88-.04.42-.39.74-.81.74Z"/>
  <path class="cls-2" d="M50.69,37.93c-.1,0-.21-.02-.31-.06-3.42-1.41-25.66-7.2-25.88-7.25-.43-.11-.7-.56-.58-.99s.56-.69.99-.58c.92.24,22.57,5.87,26.09,7.33.42.17.61.65.44,1.06-.13.31-.43.5-.75.5Z"/>
  <path class="cls-2" d="M55.04,58.51c-1.78,0-3.2-.41-4.25-1.23-1.4-1.09-1.58-2.47-1.6-2.63-.05-.45.28-.85.72-.89.45-.04.85.28.89.72,0,.02.13.87,1.01,1.54,1.05.79,2.77,1.04,4.99.72,5.6-.8,8.03-5.41,9.33-7.89.11-.21.21-.4.3-.57.86-1.58,1.4-5.02,1.59-6.42,0-.03-.02-.06-.05-.06l-5.86-1.42c-.11-.03-.22-.08-.31-.15l-8.6-6.65c-.36-.27-.42-.79-.15-1.14.27-.36.79-.42,1.14-.15l8.47,6.54,5.69,1.38c.84.21,1.39,1.01,1.27,1.87-.25,1.85-.82,5.23-1.78,6.98-.09.16-.19.35-.29.55-1.33,2.54-4.11,7.82-10.54,8.74-.71.1-1.37.15-2,.15Z"/>
  <path class="cls-2" d="M60.95,42.95c-.06,0-.12,0-.17-.02l-12.01-2.63c-.44-.1-.72-.53-.62-.97.1-.44.53-.72.97-.62l12.01,2.63c.44.1.72.53.62.97-.08.38-.42.64-.79.64Z"/>
  <path class="cls-2" d="M57.96,52.28c-2.78,0-4.33-.37-4.44-.4-.23-.06-.43-.22-.53-.43-.11-.22-.11-.47-.02-.69.57-1.3,3.27-11.06,4.26-14.71.12-.43.57-.69,1-.57.43.12.69.56.57,1-.13.48-2.86,10.53-4,13.97,1.66.22,5.55.48,11.17-.71.44-.09.87.19.96.63.09.44-.19.87-.63.96-3.44.73-6.26.94-8.36.94Z"/>
  <path class="cls-2" d="M56.82,28.59s-.03,0-.05,0c-13.24-.8-18.74-7.86-18.97-8.17-.27-.36-.2-.87.16-1.14.36-.27.87-.2,1.14.16h0c.05.07,5.32,6.78,17.77,7.52.45.03.79.41.76.86-.03.43-.38.77-.81.77Z"/>
  <path class="cls-2" d="M55.53,31.13c-.39,0-.74-.29-.8-.69l-1.4-9.14c-.07-.44.24-.86.68-.93.44-.07.86.24.93.68l1.4,9.14c.07.44-.24.86-.68.93-.04,0-.08,0-.12,0Z"/>
  <path class="cls-2" d="M62.21,56.14c-.19,0-.38-.07-.53-.2-.34-.3-.37-.81-.08-1.15,3.44-3.94,2.17-14.45,2.16-14.55-.06-.45.26-.85.71-.91.44-.06.85.26.91.71.06.46,1.37,11.34-2.55,15.82-.16.18-.39.28-.61.28Z"/>
  <path class="cls-2" d="M69.08,113.34c-.11,0-.21-.01-.32-.03-.44-.09-.82-.36-1.06-.74l-31.08-50.81c-.34-.55-.31-1.25.06-1.77,5.31-7.51,11.79-38.31,11.86-38.62.09-.44.52-.73.96-.63.44.09.72.52.63.96-.27,1.28-6.62,31.44-12.12,39.22l31.08,50.79,12.44-8.92-22.32-45.74c-.2-.4-.03-.89.37-1.09.4-.19.89-.03,1.09.38l22.32,45.76c.35.71.13,1.56-.51,2.02l-12.45,8.92c-.28.2-.61.3-.94.3Z"/>
  <path class="cls-2" d="M13.84,101.42c-.82,0-1.5-.62-1.58-1.44l-1.47-15.39c-.04-.47.11-.94.42-1.29.31-.35.76-.56,1.23-.58,11.31-.34,16.92-3.76,18.81-5.22.47-.37.82-.89.96-1.48l3.77-15.16c.11-.44.55-.7.99-.59.44.11.7.55.59.99l-3.77,15.16c-.23.94-.78,1.78-1.55,2.37-2.5,1.93-8.4,5.21-19.76,5.55-.03,0-.05.01-.06.03-.02.02-.02.05-.02.05l1.47,15.36c10.77-.05,24.5-.57,27.79-1.88,3.63-1.44,5.74-13.51,6.24-18.03.05-.45.46-.78.9-.72.45.05.77.45.72.9-.2,1.77-2.07,17.31-7.26,19.37-4.4,1.75-22.87,1.97-28.42,1.99h0Z"/>
  <path class="cls-2" d="M2.34,110.46c-.41,0-.69-.07-.71-.07-.34-.09-.59-.38-.61-.74L0,93.6c-.03-.42.27-.79.68-.85l11.47-1.85c.44-.08.86.23.93.67.07.44-.23.86-.67.93l-10.74,1.74.92,14.58c.34-.04.79-.17,1.2-.55.9-.81,1.85-2.86,1.25-8.04-.05-.42.23-.81.65-.89l7.1-1.42c.44-.09.87.2.96.64.09.44-.2.87-.64.96l-6.38,1.28c.4,4.33-.24,7.27-1.9,8.72-.89.78-1.86.94-2.5.94Z"/>
  <path class="cls-2" d="M8.67,100.39c-.41,0-.76-.31-.81-.72l-.82-7.16c-.05-.45.27-.85.72-.9.45-.05.85.27.9.72l.82,7.16c.05.45-.27.85-.72.9-.03,0-.06,0-.09,0Z"/>
  <path class="cls-2" d="M82.33,116.69s-.06,0-.08,0c-.22-.02-.41-.13-.55-.3l-6.47-8.02c-.28-.35-.23-.86.12-1.14s.86-.23,1.14.12l5.95,7.39,10.89-8.88c-1.21-.54-4-.91-8.93,2.88-.32.24-.76.22-1.05-.05l-3.63-3.4c-.33-.31-.35-.82-.04-1.15.31-.33.82-.35,1.15-.04l3.14,2.93c7.87-5.75,11.2-1.91,11.34-1.74.14.17.2.38.18.6-.02.22-.13.41-.3.55l-12.36,10.07c-.15.12-.33.18-.51.18Z"/>
  <path class="cls-2" d="M78.37,111.77c-.2,0-.39-.07-.55-.21-.33-.3-.36-.82-.05-1.15l3.97-4.35c.3-.33.82-.36,1.15-.05.33.3.36.82.05,1.15l-3.97,4.35c-.16.18-.38.27-.6.27Z"/>
  <circle class="cls-2" cx="52.13" cy="12.56" r=".94"/>
  <path class="cls-2" d="M54.64,20.46c-.8,0-2.18-.12-2.99-.85-.43-.39-.66-.91-.66-1.51,0-1.11.5-1.75.92-2.1,1.26-1.03,3.28-.66,3.51-.62.44.09.73.52.64.96-.09.44-.51.73-.95.64h0c-.38-.07-1.6-.18-2.16.28-.14.11-.32.32-.32.84,0,.13.04.22.13.3.43.39,1.65.48,2.35.41.44-.04.84.29.88.74s-.29.84-.74.88c-.07,0-.3.02-.61.02Z"/>
  <path class="cls-2" d="M50.51,1.1s-2.19-1.07-5.76.53c-3.56,1.6-6.76,2.97-7.11,5.78s-.01,4.93,1.7,7.26,3.43,3.7,3.43,3.7c0,0,.07-1.99.55-3.7s1.64-4.87,1.78-5.48,1.57-.96,2.5-.96,2.97.32,3.6-.27,1.58-.77,1.95-1.48,1.47-2.15.86-2.77-3.49-2.6-3.49-2.6Z"/>
  <path class="cls-2" d="M7.95,92.45l-6.99,1.1,1.1,15.9s2.54.14,3.08-1.37.89-6.66.89-6.66l-.21-1.43,2.43-.48-.31-7.06Z"/>
  <path class="cls-2" d="M82.37,106.43l-4.18,4.45,4.52,4.87,11.65-9.97s-2.47-1.62-4.52-.93-5.89,3.08-5.89,3.08l-1.58-1.51Z"/>
</svg>