<svg width="35" height="35" viewBox="0 0 35 35" fill="none" xmlns="http://www.w3.org/2000/svg">
<path d="M25.8009 16.2218C25.6501 16.1496 25.497 16.08 25.3418 16.0134C25.0717 11.0356 22.3517 8.18581 17.7846 8.15664C17.7639 8.15651 17.7433 8.15651 17.7226 8.15651C14.9908 8.15651 12.7189 9.32256 11.3205 11.4444L13.8323 13.1674C14.877 11.5825 16.5164 11.2446 17.7238 11.2446C17.7377 11.2446 17.7517 11.2446 17.7655 11.2448C19.2693 11.2543 20.4041 11.6916 21.1386 12.5442C21.673 13.165 22.0305 14.0228 22.2075 15.1054C20.8742 14.8788 19.4323 14.8091 17.8909 14.8975C13.5486 15.1476 10.7571 17.6801 10.9446 21.1991C11.0397 22.9841 11.9289 24.5197 13.4484 25.5228C14.7331 26.3709 16.3877 26.7856 18.1073 26.6917C20.3782 26.5672 22.1598 25.7008 23.4026 24.1165C24.3465 22.9133 24.9435 21.3542 25.2071 19.3896C26.2894 20.0428 27.0915 20.9023 27.5344 21.9355C28.2877 23.6919 28.3316 26.5781 25.9766 28.9311C23.9132 30.9925 21.433 31.8843 17.6846 31.9118C13.5266 31.881 10.382 30.5475 8.33751 27.9484C6.42298 25.5146 5.43353 21.9993 5.39662 17.5C5.43353 13.0006 6.42298 9.48529 8.33751 7.05153C10.382 4.45246 13.5266 3.11901 17.6845 3.08811C21.8727 3.11925 25.0721 4.45911 27.1948 7.07073C28.2357 8.35144 29.0205 9.96202 29.5378 11.8399L32.4813 11.0546C31.8542 8.74311 30.8675 6.7513 29.5247 5.09943C26.8033 1.75122 22.8231 0.0355739 17.6948 0H17.6743C12.5564 0.0354503 8.62079 1.75762 5.97687 5.11862C3.62414 8.1095 2.41054 12.2711 2.36976 17.4877L2.36963 17.5L2.36976 17.5123C2.41054 22.7289 3.62414 26.8906 5.97687 29.8814C8.62079 33.2423 12.5564 34.9646 17.6743 35H17.6948C22.2449 34.9685 25.4521 33.7772 28.0943 31.1374C31.5511 27.6839 31.447 23.355 30.3076 20.6976C29.4903 18.7919 27.9318 17.2441 25.8009 16.2218ZM17.9447 23.608C16.0416 23.7152 14.0644 22.861 13.967 21.0314C13.8947 19.6747 14.9324 18.161 18.0615 17.9807C18.4199 17.96 18.7715 17.9499 19.1169 17.9499C20.2535 17.9499 21.3168 18.0603 22.2835 18.2716C21.923 22.7746 19.808 23.5058 17.9447 23.608Z" fill="#0E0E0E"/>
</svg>
