<svg width="80" height="80" viewBox="0 0 80 80" fill="none" xmlns="http://www.w3.org/2000/svg">
<rect x="1.5" y="1.5" width="77" height="77" rx="38.5" fill="#1D3054" stroke="#ED6942" stroke-width="3"/>
<path d="M23.5472 40.8506C23.1968 40.4985 23 40.021 23 39.5231C23 39.0252 23.1968 38.5476 23.5472 38.1955L34.12 27.5732C34.2924 27.3939 34.4986 27.2509 34.7266 27.1524C34.9547 27.054 35.1999 27.0022 35.4481 27.0001C35.6962 26.9979 35.9423 27.0454 36.172 27.1398C36.4017 27.2342 36.6104 27.3737 36.7859 27.55C36.9613 27.7263 37.1001 27.9359 37.1941 28.1667C37.2881 28.3975 37.3354 28.6447 37.3332 28.894C37.331 29.1434 37.2795 29.3898 37.1815 29.6188C37.0836 29.8479 36.9412 30.0551 36.7627 30.2283L29.3803 37.6454L54.131 37.6453C54.6267 37.6453 55.1021 37.8432 55.4526 38.1953C55.8031 38.5475 56 39.0251 56 39.5231C56 40.0211 55.8031 40.4987 55.4526 40.8508C55.1021 41.203 54.6267 41.4008 54.131 41.4008L29.3803 41.4008L36.7627 48.8178C37.1031 49.1719 37.2915 49.6463 37.2873 50.1386C37.283 50.6309 37.0865 51.1019 36.7399 51.45C36.3934 51.7982 35.9246 51.9957 35.4346 51.9999C34.9446 52.0042 34.4725 51.8149 34.12 51.4729L23.5472 40.8506Z" fill="#ED6942"/>
</svg>
